<svg xmlns="http://www.w3.org/2000/svg" xmlns:xlink="http://www.w3.org/1999/xlink" width="500" zoomAndPan="magnify" viewBox="0 0 375 374.999991" height="500" preserveAspectRatio="xMidYMid meet" version="1.0"><defs><clipPath id="3280a6ab26"><path d="M 40.035156 138.242188 L 337 138.242188 L 337 343.039062 L 40.035156 343.039062 Z M 40.035156 138.242188 " clip-rule="nonzero"/></clipPath><clipPath id="6a9bb7661a"><path d="M 31.9375 31.9375 L 343.039062 31.9375 L 343.039062 231 L 31.9375 231 Z M 31.9375 31.9375 " clip-rule="nonzero"/></clipPath></defs><path fill="#ffffff" d="M 216.914062 222.578125 L 200.339844 222.578125 L 200.339844 206.007812 L 216.914062 206.007812 L 216.914062 222.578125 " fill-opacity="1" fill-rule="nonzero"/><path fill="#ffffff" d="M 216.914062 243.136719 L 200.339844 243.136719 L 200.339844 226.566406 L 216.914062 226.566406 L 216.914062 243.136719 " fill-opacity="1" fill-rule="nonzero"/><path fill="#ffffff" d="M 237.679688 222.578125 L 221.109375 222.578125 L 221.109375 206.007812 L 237.679688 206.007812 L 237.679688 222.578125 " fill-opacity="1" fill-rule="nonzero"/><path fill="#ffffff" d="M 237.679688 243.136719 L 221.109375 243.136719 L 221.109375 226.566406 L 237.679688 226.566406 L 237.679688 243.136719 " fill-opacity="1" fill-rule="nonzero"/><g clip-path="url(#3280a6ab26)"><path fill="#2057f0" d="M 336.910156 230.808594 L 299.769531 201.769531 L 299.769531 208.785156 L 289.835938 208.785156 L 289.835938 180.742188 L 298.472656 188.488281 L 289.835938 165.457031 L 272.277344 165.457031 L 272.277344 180.269531 L 219.011719 138.625 L 101.109375 230.808594 L 130.5 230.808594 L 219.011719 161.605469 L 307.519531 230.808594 L 307.757812 230.808594 C 290.003906 280.082031 242.875 315.320312 187.488281 315.320312 C 135.492188 315.320312 90.746094 284.269531 70.773438 239.703125 L 70.574219 239.859375 L 40.984375 239.859375 C 62.488281 300 119.960938 343.039062 187.488281 343.039062 C 258.363281 343.039062 318.15625 295.640625 336.917969 230.8125 L 336.910156 230.808594 " fill-opacity="1" fill-rule="nonzero"/></g><g clip-path="url(#6a9bb7661a)"><path fill="#3678fb" d="M 187.488281 31.933594 C 101.582031 31.933594 31.9375 101.578125 31.9375 187.488281 C 31.9375 202.523438 34.078125 217.058594 38.058594 230.8125 L 38.066406 230.808594 L 67.457031 230.808594 L 155.96875 161.605469 L 167.480469 170.605469 L 182.171875 159.113281 L 155.96875 138.625 L 62.027344 212.078125 C 60.476562 204.117188 59.652344 195.902344 59.652344 187.488281 C 59.652344 116.882812 116.886719 59.648438 187.488281 59.648438 C 258.089844 59.648438 315.324219 116.882812 315.324219 187.488281 C 315.324219 192.332031 315.046875 197.109375 314.519531 201.816406 L 339.359375 221.234375 C 341.761719 210.367188 343.039062 199.074219 343.039062 187.488281 C 343.039062 101.578125 273.398438 31.933594 187.488281 31.933594 " fill-opacity="1" fill-rule="nonzero"/></g><path fill="#ffffff" d="M 211.453125 95.066406 C 190.804688 96.496094 189.652344 97.652344 188.222656 118.300781 C 186.800781 97.652344 185.644531 96.496094 164.996094 95.066406 C 185.644531 93.644531 186.800781 92.488281 188.222656 71.839844 C 189.652344 92.488281 190.804688 93.644531 211.453125 95.066406 " fill-opacity="1" fill-rule="nonzero"/><path fill="#ffffff" d="M 254.972656 115.394531 C 240.253906 116.414062 239.429688 117.234375 238.414062 131.949219 C 237.398438 117.234375 236.574219 116.414062 221.859375 115.394531 C 236.574219 114.378906 237.398438 113.558594 238.414062 98.839844 C 239.429688 113.558594 240.253906 114.378906 254.972656 115.394531 " fill-opacity="1" fill-rule="nonzero"/><path fill="#ffffff" d="M 153.121094 115.394531 C 138.402344 116.414062 137.578125 117.234375 136.5625 131.949219 C 135.550781 117.234375 134.722656 116.414062 120.007812 115.394531 C 134.722656 114.378906 135.550781 113.558594 136.5625 98.839844 C 137.578125 113.558594 138.402344 114.378906 153.121094 115.394531 " fill-opacity="1" fill-rule="nonzero"/></svg>